<svg width="40" height="55" viewBox="0 0 40 55" fill="none" xmlns="http://www.w3.org/2000/svg">
<path d="M31.0154 0.101215C29.1138 0.558514 27.1485 2.22703 26.4338 4.00679C25.8978 5.3416 25.9233 7.07192 26.4976 8.17191C26.9443 9.04942 26.9698 9.04942 27.493 8.33258C28.4119 7.12136 29.586 6.71349 30.6325 7.23259C31.5897 7.70225 31.628 7.65281 29.2032 9.64267C27.9652 10.6438 26.8932 11.4966 26.8166 11.5337C26.7273 11.5584 26.3189 11.2 25.8978 10.7179C25.4766 10.2359 24.8385 9.61795 24.4684 9.34605C23.843 8.87639 23.8175 8.82695 23.9324 8.45617C24.1366 7.77641 23.6516 7.10899 22.7072 6.76293C22.2988 6.61462 21.8011 6.78765 21.6862 7.12136C21.5714 7.5045 21.2778 7.43034 21.1757 7.01012C21.0736 6.55282 20.6653 6.26856 19.9633 6.18204C19.4018 6.10788 19.07 6.28092 19.07 6.6517C19.07 6.84945 18.9934 6.87417 18.2787 6.81237C17.1684 6.7135 15.7646 7.02248 14.9478 7.52922C14.3224 7.91236 14.2076 7.93708 12.842 7.99887C11.1957 8.07303 11.1064 8.12247 11.234 8.97527C11.3361 9.75391 11.5403 10.1 11.9104 10.1741C12.5868 10.3224 12.7655 10.3719 13.0462 10.5449C13.7226 10.9651 13.1738 11.237 12.1912 10.9651C11.7828 10.8539 11.77 10.8539 11.8466 11.1876C12.0635 12.0651 12.1656 12.1763 13.059 12.4359C13.5312 12.5718 14.0417 12.819 14.1821 12.9674C14.616 13.4123 14.9606 14.3022 15.0626 15.2044C15.152 16.0696 15.2541 16.1684 15.6497 15.8224C15.8667 15.637 15.8794 15.6493 15.8794 16.2797V16.9224L16.1985 16.7246L16.5175 16.5269V17.0089C16.5175 17.2931 16.4154 17.6021 16.2751 17.7752C16.0581 18.0347 15.9305 18.0718 15.0882 18.0718C13.7099 18.0594 13.1866 17.7628 10.7873 15.6123C8.59221 13.6595 5.69519 12.0775 4.31687 12.0775H3.89572L4.08715 12.5101C4.17648 12.7449 4.26582 12.9674 4.26582 13.0044C4.26582 13.0415 3.95953 13.0662 3.58942 13.0662C3.20656 13.0662 2.87474 13.0909 2.83645 13.128C2.79817 13.1651 2.96408 13.3876 3.20656 13.6224C3.69152 14.0921 3.67876 14.2404 3.12998 14.364C2.92579 14.401 2.68331 14.5123 2.60673 14.6112C2.49187 14.7471 2.54292 14.8213 2.8875 14.9943C3.42351 15.2538 5.19746 16.91 5.69519 17.6145C5.89938 17.9111 6.24396 18.5909 6.44816 19.1471C6.65235 19.6909 6.92036 20.3088 7.02246 20.5189L7.22665 20.8897L7.4819 20.5066C7.62228 20.2841 7.7499 20.1111 7.77543 20.1111C7.80095 20.1111 7.91581 20.5313 8.03067 21.0628L8.24763 22.0021L8.56668 21.6066C8.73259 21.3965 8.92403 21.2481 8.97507 21.2852C9.03889 21.3099 9.11546 21.5571 9.16651 21.829C9.20479 22.1009 9.30689 22.4717 9.38347 22.6695L9.52385 23.0155L9.81738 22.6571L10.1109 22.2987L10.7363 22.8178C11.0681 23.1144 11.5148 23.4234 11.7062 23.5223C11.8976 23.6212 12.0252 23.7571 11.987 23.8189C11.7828 24.1402 8.26039 24.9313 7.04798 24.9313C6.85655 24.9313 6.37158 25.0548 5.97596 25.1908C4.81459 25.611 2.91303 27.4896 2.65778 28.4413C2.6195 28.6144 2.59397 28.7627 2.6195 28.7627C2.64502 28.7627 2.97684 28.6514 3.33418 28.5155C3.70428 28.3795 4.01058 28.2806 4.01058 28.3054C4.01058 28.3177 3.87019 28.602 3.69152 28.9357C3.51285 29.2694 3.37247 29.6773 3.37247 29.8379V30.1222L3.84467 29.875C4.35516 29.6155 4.64869 29.566 4.64869 29.7267C4.64869 29.7885 3.62771 30.6784 2.36425 31.7042C1.11355 32.7424 0.0542917 33.6817 0.0287673 33.8053C-0.149904 34.4233 0.539256 34.8929 1.11355 34.5469C1.2667 34.4356 2.84922 33.1626 4.62316 31.7042C7.72438 29.1458 7.87752 29.0469 8.26039 29.1334C8.49011 29.1829 9.12822 29.3436 9.68976 29.4795C10.2513 29.6155 10.9532 29.7761 11.234 29.8132C11.7572 29.8874 11.7572 29.8874 11.6934 29.5537C11.6424 29.2818 11.6679 29.2323 11.8338 29.2941C12.038 29.3683 12.6889 29.5289 13.378 29.6773C13.7226 29.7638 13.7354 29.7391 13.6588 29.4424L13.5695 29.1211L14.5394 29.2076L15.4966 29.2941L15.42 28.8863L15.3307 28.4908L15.8284 28.5526C16.0964 28.5896 16.6707 28.6638 17.0791 28.7009C17.9469 28.7997 17.8576 28.9233 16.7983 29.1458C16.173 29.2694 16.1219 29.3065 16.1857 29.566C16.2751 29.9121 16.0964 29.9986 15.2286 29.9986C14.6798 29.9986 14.5904 30.0233 14.6543 30.2087C14.7946 30.6784 14.9861 32.5941 15.0626 34.3738C15.1647 36.6974 15.0499 37.2289 13.8885 39.4535C13.0717 41.0479 12.7016 42.2344 12.6889 43.2479C12.6889 43.6928 12.7016 43.7052 13.0207 43.5939C13.5439 43.3962 13.5567 43.4333 13.2504 44.0636C13.0845 44.3849 12.9058 44.8299 12.8675 45.04C12.791 45.4355 12.791 45.4479 13.1866 45.3737C13.6588 45.2748 13.6588 45.2748 13.327 45.9546C13.0462 46.5726 12.9696 47.3265 13.2249 47.0793C13.4801 46.8321 13.6971 46.9063 13.8885 47.3265C13.9779 47.549 14.3863 48.0928 14.7946 48.5377C15.4838 49.304 16.0071 50.095 16.0071 50.3916C16.0071 50.5894 14.2331 51.3804 13.7992 51.3804C13.0207 51.3804 12.2932 51.6646 11.6934 52.1961L11.0936 52.7275L11.502 52.7399C11.7189 52.7399 11.9487 52.8017 11.987 52.8635C12.0252 52.9377 12.0125 52.9871 11.9359 52.9871C11.821 52.9871 11.4127 53.6051 11.4127 53.7781C11.4127 53.8028 11.6551 53.8028 11.9487 53.7534L12.4974 53.6916L12.1401 54.0871C11.9487 54.3095 11.7955 54.532 11.7955 54.5815C11.7955 54.7668 14.0417 54.7174 15.203 54.5073C16.2368 54.3219 16.5558 54.3219 17.7555 54.4579C19.2487 54.6309 19.5932 54.5691 20.0271 54.0994C20.3079 53.7905 20.3334 53.2714 20.142 51.6276C20.0782 51.1208 20.0399 50.4905 20.0654 50.2309C20.1037 49.8107 20.1292 49.7736 20.4228 49.8478C20.7291 49.922 20.7291 49.922 20.6397 49.3905C20.4228 48.2287 20.6397 45.8434 20.9715 45.6332C21.0226 45.6085 21.0609 46.0164 21.0481 46.5355C21.0481 47.4501 21.0609 47.4872 21.3417 47.4501C21.5841 47.413 21.6224 47.4624 21.6224 47.7838C21.6224 47.9815 21.6735 48.2905 21.75 48.4759C21.8521 48.7478 21.916 48.7725 22.1201 48.6613C22.452 48.4883 22.5158 48.5006 22.5158 48.7231C22.5158 48.8343 22.6051 49.0815 22.7072 49.2916C22.8986 49.6377 22.9242 49.6377 23.2049 49.4523C23.4985 49.2793 23.5623 49.2793 24.0472 49.5265C24.6471 49.8231 25.5787 50.6017 25.5787 50.8118C25.5787 51.0219 24.1749 51.8747 23.8303 51.8747C23.2177 51.8747 22.4137 52.1466 21.9415 52.5174L21.4693 52.9006L21.8904 53.0736C22.1457 53.1725 22.2605 53.2837 22.184 53.3332C22.0181 53.432 21.75 53.9017 21.75 54.0994C21.75 54.1736 21.8777 54.1983 22.0563 54.1489C22.5158 54.0376 22.6817 54.186 22.452 54.5073C22.3499 54.6556 22.2605 54.8286 22.2605 54.9028C22.2605 55.0882 25.1065 54.9893 25.9871 54.7668C26.5231 54.6309 27.1229 54.6062 28.2843 54.6556C30.0838 54.7421 30.4028 54.6556 30.6453 53.9758C30.8367 53.4691 30.7729 52.8141 30.3518 50.9231C29.9561 49.1433 29.9561 49.131 30.3901 49.2298C30.6836 49.304 30.7091 49.2916 30.6325 49.0815C30.1603 47.9197 29.7902 45.5467 29.7902 43.6187C29.7902 42.2468 29.8796 42.0737 30.4411 42.358C30.7091 42.5063 30.7219 42.494 30.6325 41.9749C30.5815 41.6782 30.4028 41.1344 30.2369 40.776C29.9179 40.0962 29.9434 40.0592 30.5049 40.2569L30.8495 40.3929L30.7857 39.8367C30.7474 39.5277 30.607 39.058 30.4666 38.7738C30.1859 38.2423 30.288 38.1311 30.8367 38.4154C31.1047 38.5513 31.1047 38.5513 31.0154 37.3401C30.875 35.3379 30.5687 33.8918 29.7647 31.4817C28.7054 28.3177 28.463 26.7481 28.7182 24.8695C28.8075 24.3009 28.8203 24.2886 29.1904 24.3627L29.5733 24.4369L29.4839 23.5099C29.4329 23.0032 29.4201 22.583 29.4584 22.583C29.4967 22.583 29.6754 22.6448 29.854 22.7066L30.1986 22.8302L30.1093 22.1875C30.0582 21.829 29.9434 21.2976 29.8413 21.001C29.6754 20.4201 29.6371 20.4448 30.2752 20.692C30.9005 20.9392 29.586 17.3797 28.3864 15.5875C28.1056 15.1797 27.8759 14.7965 27.8759 14.7471C27.8759 14.6853 28.0163 14.6853 28.195 14.7224C28.3736 14.7718 28.514 14.7471 28.514 14.6853C28.514 14.4876 28.0929 13.6842 27.9908 13.6842C27.9397 13.6842 25.7446 15.4516 23.1156 17.6268C18.3553 21.5448 18.3298 21.5571 17.5385 21.7054C17.1046 21.792 16.7345 21.8414 16.709 21.8167C16.6707 21.7672 32.2533 8.95055 32.4193 8.90111C32.5979 8.85167 33.6189 10.2854 33.8869 10.9651C34.0145 11.3112 34.1294 11.7685 34.1294 11.9786V12.3741L34.5761 11.9539C35.3035 11.2741 35.6609 10.446 35.6609 9.46964C35.6609 8.7528 35.597 8.51797 35.2014 7.78876L34.7547 6.94832L35.4949 6.30563C36.3883 5.52699 36.886 5.27981 37.5497 5.27981C38.0091 5.27981 38.0857 5.23037 38.4941 4.62476C39.2215 3.56185 40 2.12816 40 1.83154C40 1.60907 39.949 1.58435 39.6554 1.64614C38.979 1.79446 37.8049 2.20231 36.9371 2.58545C36.1458 2.91916 36.031 3.01804 35.9161 3.41354C35.8523 3.66072 35.7885 3.94499 35.7885 4.04387C35.7885 4.2169 34.0018 5.77418 33.8103 5.77418C33.6444 5.77418 33.3637 4.8843 33.3637 4.34049C33.3637 3.51241 33.8231 2.82028 34.7675 2.20231C35.1886 1.93041 35.6481 1.67086 35.7885 1.63378C35.9289 1.58434 36.0437 1.51019 36.0437 1.46075C36.0437 1.25064 35.2907 0.694469 34.5761 0.385483C33.9507 0.101215 33.6061 0.0270615 32.6617 0.00234222C32.0364 -0.0100174 31.2834 0.0270615 31.0154 0.101215Z" fill="#EFD445"/>
</svg>
