<svg width="36" height="36" viewBox="0 0 36 36" fill="none" xmlns="http://www.w3.org/2000/svg">
<path d="M27.0825 35.9166C25.1992 35.9166 23.2159 35.4666 21.1659 34.5999C19.1659 33.7499 17.1492 32.5833 15.1825 31.1666C13.2325 29.7332 11.3492 28.1333 9.56585 26.3833C7.79919 24.5999 6.19919 22.7166 4.78252 20.7833C3.34919 18.7833 2.19919 16.7833 1.38252 14.8499C0.515853 12.7833 0.0825195 10.7833 0.0825195 8.89992C0.0825195 7.59992 0.315853 6.36658 0.765853 5.21659C1.23252 4.03325 1.98252 2.93325 2.99919 1.98325C4.28252 0.716585 5.74919 0.083252 7.31585 0.083252C7.96585 0.083252 8.63252 0.233252 9.19919 0.499919C9.84919 0.799919 10.3992 1.24992 10.7992 1.84992L14.6659 7.29992C15.0159 7.78325 15.2825 8.24992 15.4659 8.71659C15.6825 9.21659 15.7992 9.71659 15.7992 10.1999C15.7992 10.8333 15.6159 11.4499 15.2659 12.0333C14.9595 12.5539 14.5839 13.0305 14.1492 13.4499L13.0159 14.6333C13.0325 14.6833 13.0492 14.7166 13.0659 14.7499C13.2659 15.0999 13.6659 15.6999 14.4325 16.5999C15.2492 17.5333 16.0159 18.3833 16.7825 19.1666C17.7659 20.1333 18.5825 20.8999 19.3492 21.5333C20.2992 22.3333 20.9159 22.7333 21.2825 22.9166L21.2492 22.9999L22.4659 21.7999C22.9825 21.2833 23.4825 20.8999 23.9659 20.6499C24.8825 20.0833 26.0492 19.9833 27.2159 20.4666C27.6492 20.6499 28.1159 20.8999 28.6159 21.2499L34.1492 25.1833C34.7659 25.5999 35.2159 26.1333 35.4825 26.7666C35.7325 27.3999 35.8492 27.9833 35.8492 28.5666C35.8492 29.3666 35.6659 30.1666 35.3159 30.9166C34.9659 31.6666 34.5325 32.3166 33.9825 32.9166C33.0325 33.9666 31.9992 34.7166 30.7992 35.1999C29.6492 35.6666 28.3992 35.9166 27.0825 35.9166ZM7.31585 2.58325C6.39919 2.58325 5.54919 2.98325 4.73252 3.78325C3.96585 4.49992 3.43252 5.28325 3.09919 6.13325C2.74919 6.99992 2.58252 7.91658 2.58252 8.89992C2.58252 10.4499 2.94919 12.1333 3.68252 13.8666C4.43252 15.6333 5.48252 17.4666 6.81585 19.2999C8.14919 21.1333 9.66585 22.9166 11.3325 24.5999C12.9992 26.2499 14.7992 27.7833 16.6492 29.1333C18.4492 30.4499 20.2992 31.5166 22.1325 32.2832C24.9825 33.4999 27.6492 33.7833 29.8492 32.8666C30.6992 32.5166 31.4492 31.9833 32.1325 31.2166C32.5159 30.7999 32.8159 30.3499 33.0659 29.8166C33.2659 29.3999 33.3659 28.9666 33.3659 28.5333C33.3659 28.2666 33.3159 27.9999 33.1825 27.6999C33.076 27.4935 32.9145 27.3204 32.7159 27.1999L27.1825 23.2666C26.8492 23.0333 26.5492 22.8666 26.2659 22.7499C25.8992 22.5999 25.7492 22.4499 25.1825 22.7999C24.8492 22.9666 24.5492 23.2166 24.2159 23.5499L22.9492 24.7999C22.2992 25.4333 21.2992 25.5833 20.5325 25.2999L20.0825 25.0999C19.3992 24.7333 18.5992 24.1666 17.7159 23.4166C16.9159 22.7333 16.0492 21.9333 14.9992 20.8999C14.1825 20.0666 13.3659 19.1833 12.5159 18.1999C11.7325 17.2833 11.1659 16.4999 10.8159 15.8499L10.6159 15.3499C10.5159 14.9666 10.4825 14.7499 10.4825 14.5166C10.4825 13.9166 10.6992 13.3833 11.1159 12.9666L12.3659 11.6666C12.6992 11.3333 12.9492 11.0166 13.1159 10.7333C13.2492 10.5166 13.2992 10.3333 13.2992 10.1666C13.2992 10.0333 13.2492 9.83325 13.1659 9.63325C13.0492 9.36658 12.8659 9.06658 12.6325 8.74992L8.76585 3.28325C8.60983 3.05932 8.39698 2.88099 8.14919 2.76659C7.88252 2.64992 7.59919 2.58325 7.31585 2.58325ZM21.2492 23.0166L20.9825 24.1499L21.4325 22.9833C21.3492 22.9666 21.2825 22.9833 21.2492 23.0166Z" fill="#EFD445"/>
</svg>
