<svg width="26" height="26" viewBox="0 0 26 26" fill="none" xmlns="http://www.w3.org/2000/svg">
<path fill-rule="evenodd" clip-rule="evenodd" d="M13 23C18.5228 23 23 18.5228 23 13C23 7.47715 18.5228 3 13 3C7.47715 3 3 7.47715 3 13C3 18.5228 7.47715 23 13 23ZM13 26C20.1797 26 26 20.1797 26 13C26 5.8203 20.1797 0 13 0C5.8203 0 0 5.8203 0 13C0 20.1797 5.8203 26 13 26Z" fill="#EFD445"/>
<path d="M19 14.3846C18.3665 17.0308 15.957 19 13.0814 19C9.72272 19 7 16.3137 7 13C7 9.6863 9.72272 7 13.0814 7C15.957 7 18.3665 8.9692 19 11.6154H16.0408C15.5153 10.5237 14.3876 9.76923 13.0814 9.76923C11.2729 9.76923 9.80678 11.2156 9.80678 13C9.80678 14.7844 11.2729 16.2308 13.0814 16.2308C14.3876 16.2308 15.5153 15.4763 16.0408 14.3846H19Z" fill="#EFD445"/>
</svg>
