<svg width="41" height="40" viewBox="0 0 41 40" fill="none" xmlns="http://www.w3.org/2000/svg">
<path d="M20.584 32.25C19.9007 32.25 19.334 31.6833 19.334 31V27.5C19.334 26.8167 19.9007 26.25 20.584 26.25C21.2673 26.25 21.834 26.8167 21.834 27.5V31C21.834 31.6833 21.2673 32.25 20.584 32.25Z" fill="#EFD445"/>
<path d="M30.1686 37.9167H11.002V35.0001C11.002 32.4667 13.052 30.4167 15.5853 30.4167H25.5853C28.1186 30.4167 30.1686 32.4667 30.1686 35.0001V37.9167ZM13.502 35.4167H27.6686V35.0001C27.6686 33.8501 26.7353 32.9167 25.5853 32.9167H15.5853C14.4353 32.9167 13.502 33.8501 13.502 35.0001V35.4167Z" fill="#EFD445"/>
<path d="M30.5827 37.9166H10.5827C9.89935 37.9166 9.33268 37.35 9.33268 36.6666C9.33268 35.9833 9.89935 35.4166 10.5827 35.4166H30.5827C31.266 35.4166 31.8327 35.9833 31.8327 36.6666C31.8327 37.35 31.266 37.9166 30.5827 37.9166ZM31.0494 20.7316C30.6994 20.7316 30.3494 20.5816 30.0994 20.2983C29.9435 20.121 29.8418 19.9027 29.8064 19.6693C29.7709 19.4359 29.8032 19.1972 29.8994 18.9816C30.466 17.6816 30.7494 16.2983 30.7494 14.8483V9.84831C30.7494 9.26497 30.6494 8.69831 30.4494 8.09831C30.4306 8.03779 30.4139 7.97665 30.3994 7.91497C30.3494 7.66497 30.3327 7.41497 30.3327 7.18164C30.3327 6.49831 30.8994 5.93164 31.5827 5.93164H32.5827C35.566 5.93164 37.9994 8.43164 37.9994 11.515C37.9994 14.065 36.9493 16.5816 35.1327 18.3983C35.0993 18.4316 34.9994 18.515 34.9827 18.5316C33.9994 19.3483 32.8827 20.265 31.3827 20.6816C31.266 20.715 31.166 20.7316 31.0494 20.7316ZM33.1327 8.48164C33.216 8.93164 33.2494 9.39831 33.2494 9.84831V14.8483C33.2494 15.5316 33.1994 16.1816 33.0993 16.8483L33.3827 16.615C34.716 15.2816 35.4994 13.415 35.4994 11.515C35.4994 10.015 34.4827 8.74831 33.1327 8.48164ZM9.63268 20.67C9.50184 20.6722 9.37175 20.6496 9.24935 20.6033C7.88268 20.17 6.59935 19.37 5.53268 18.3033C3.61602 16.1866 2.66602 13.87 2.66602 11.42C2.66602 8.38664 5.04935 6.00331 8.08268 6.00331H9.16602C9.58268 6.00331 9.98268 6.21997 10.216 6.56997C10.4493 6.91997 10.4827 7.36997 10.316 7.75331C10.0493 8.35331 9.91602 9.03664 9.91602 9.75331V14.7533C9.91602 16.1866 10.1993 17.5866 10.7827 18.92C10.9827 19.37 10.8827 19.8866 10.566 20.2533C10.316 20.52 9.98268 20.67 9.63268 20.67ZM7.49935 8.55331C6.14935 8.81997 5.16602 9.98664 5.16602 11.42C5.16602 13.2366 5.89935 14.9866 7.34935 16.5866C7.41602 16.67 7.49935 16.7366 7.58268 16.8033C7.46602 16.12 7.41602 15.4366 7.41602 14.7533V9.75331C7.41602 9.35331 7.44935 8.95331 7.49935 8.55331Z" fill="#EFD445"/>
<path d="M20.3327 27.9166C13.216 27.9166 7.41602 22.1166 7.41602 14.9999V9.99992C7.41602 5.63325 10.966 2.08325 15.3327 2.08325H25.3327C29.6994 2.08325 33.2493 5.63325 33.2493 9.99992V14.9999C33.2493 22.1166 27.4494 27.9166 20.3327 27.9166ZM15.3327 4.58325C12.3493 4.58325 9.91602 7.01659 9.91602 9.99992V14.9999C9.91602 20.7499 14.5827 25.4166 20.3327 25.4166C26.0827 25.4166 30.7493 20.7499 30.7493 14.9999V9.99992C30.7493 7.01659 28.316 4.58325 25.3327 4.58325H15.3327Z" fill="#EFD445"/>
</svg>
