<svg width="40" height="40" viewBox="0 0 40 40" fill="none" xmlns="http://www.w3.org/2000/svg">
<path d="M29.566 37.9167H10.4327C6.28268 37.9167 2.91602 34.5501 2.91602 30.4001V19.1834C2.91602 15.0334 6.28268 11.6667 10.4327 11.6667H29.566C33.716 11.6667 37.0827 15.0334 37.0827 19.1834V21.5834C37.0827 22.2667 36.516 22.8334 35.8327 22.8334H32.466C31.8827 22.8334 31.3493 23.0501 30.966 23.4501L30.9494 23.4667C30.4827 23.9167 30.266 24.5334 30.316 25.1667C30.416 26.2667 31.466 27.1501 32.666 27.1501H35.8327C36.516 27.1501 37.0827 27.7167 37.0827 28.4001V30.3834C37.0827 34.5501 33.716 37.9167 29.566 37.9167ZM10.4327 14.1667C7.66602 14.1667 5.41602 16.4167 5.41602 19.1834V30.4001C5.41602 33.1667 7.66602 35.4167 10.4327 35.4167H29.566C32.3327 35.4167 34.5827 33.1667 34.5827 30.4001V29.6667H32.666C30.1494 29.6667 28.016 27.8001 27.816 25.4001C27.6827 24.0334 28.1827 22.6834 29.1827 21.7001C30.0494 20.8167 31.216 20.3334 32.466 20.3334H34.5827V19.1834C34.5827 16.4167 32.3327 14.1667 29.566 14.1667H10.4327Z" fill="#EFD445"/>
<path d="M4.16602 21.9333C3.48268 21.9333 2.91602 21.3666 2.91602 20.6833V13.0666C2.91602 10.5833 4.48268 8.33329 6.79935 7.44995L20.0327 2.44995C21.3994 1.93329 22.916 2.11662 24.0993 2.94995C25.2994 3.78329 25.9994 5.13329 25.9994 6.58329V12.9166C25.9994 13.6 25.4327 14.1666 24.7494 14.1666C24.066 14.1666 23.4994 13.6 23.4994 12.9166V6.58329C23.4994 5.94995 23.1994 5.36662 22.666 4.99995C22.1327 4.63329 21.4993 4.54995 20.8993 4.78329L7.66602 9.78329C6.31602 10.3 5.39935 11.6166 5.39935 13.0666V20.6833C5.41602 21.3833 4.84935 21.9333 4.16602 21.9333ZM32.6644 29.6666C30.1477 29.6666 28.0143 27.8 27.8143 25.4C27.681 24.0166 28.181 22.6666 29.181 21.6833C30.031 20.8166 31.1977 20.3333 32.4477 20.3333H35.9143C37.5644 20.3833 38.831 21.6833 38.831 23.2833V26.7166C38.831 28.3166 37.5644 29.6166 35.9644 29.6666H32.6644ZM35.881 22.8333H32.4643C31.881 22.8333 31.3477 23.05 30.9644 23.45C30.481 23.9166 30.2477 24.55 30.3143 25.1833C30.4143 26.2833 31.4644 27.1666 32.6644 27.1666H35.931C36.1477 27.1666 36.3477 26.9666 36.3477 26.7166V23.2833C36.3477 23.0333 36.1477 22.85 35.881 22.8333Z" fill="#EFD445"/>
<path d="M23.3327 21.25H11.666C10.9827 21.25 10.416 20.6833 10.416 20C10.416 19.3167 10.9827 18.75 11.666 18.75H23.3327C24.016 18.75 24.5827 19.3167 24.5827 20C24.5827 20.6833 24.016 21.25 23.3327 21.25Z" fill="#EFD445"/>
</svg>
