<svg width="40" height="32" viewBox="0 0 40 32" fill="none" xmlns="http://www.w3.org/2000/svg">
<path fill-rule="evenodd" clip-rule="evenodd" d="M9.85017 0.393708C9.54056 0.51605 9.34556 0.767168 9.25311 1.16249C9.15726 1.57235 9.38618 2.07292 9.76562 2.28316L9.95359 2.3873L12.0094 2.40766L14.0651 2.42802L14.1563 2.54226L14.2475 2.6565V3.9118C14.2475 5.0869 14.2429 5.17326 14.1753 5.26323L14.103 5.35935L11.9916 5.37971C9.91858 5.3997 9.8774 5.40166 9.72891 5.48793C9.52256 5.60783 9.38462 5.77341 9.30987 5.99098C9.25735 6.14377 9.24559 6.37555 9.23795 7.40865C9.22902 8.61469 9.22687 8.64575 9.14686 8.73182C9.06511 8.81972 9.05996 8.81996 7.20378 8.82281C5.54539 8.82538 5.32142 8.83336 5.14782 8.89602C4.90227 8.98469 4.73831 9.15235 4.61077 9.44528L4.51076 9.67494L4.49185 13.1844C4.47676 15.9864 4.46304 16.7046 4.42383 16.7468C4.38628 16.7873 4.11002 16.8025 3.2483 16.8116C2.17839 16.8228 2.11733 16.8195 2.0307 16.7439L1.93949 16.6645L1.91923 13.1493C1.89695 9.28955 1.90871 9.47129 1.66081 9.15947C1.47841 8.93001 1.28329 8.84211 0.956363 8.84211C0.548742 8.84211 0.30485 8.9875 0.137605 9.33022L0.0488585 9.51208L0.0204612 11.7717C0.00480676 13.0144 -0.00370109 16.7977 0.00155487 20.1789C0.0110459 26.3166 0.0111592 26.3269 0.0899986 26.5102C0.294528 26.986 0.747978 27.2163 1.20884 27.0784C1.44971 27.0064 1.69961 26.7937 1.80522 26.5709L1.90168 26.3673L1.92059 22.73L1.93949 19.0928L2.02877 19.015C2.11211 18.9423 2.19148 18.9372 3.22271 18.9372C4.32309 18.9372 4.32774 18.9375 4.40825 19.0298L4.48909 19.1224L4.4999 22.6838C4.51015 26.0454 4.51473 26.2565 4.58139 26.4487C4.62026 26.5607 4.68556 26.7032 4.72652 26.7654C4.84597 26.9468 5.1372 27.0806 5.50754 27.1242C5.69789 27.1466 7.72011 27.1596 10.3532 27.1554C15.5335 27.1471 15.0123 27.1047 15.3561 27.5621C17.1202 29.9094 18.3912 31.5707 18.5058 31.679C18.5845 31.7534 18.7263 31.8528 18.8209 31.8999L18.993 31.9857L24.6999 31.9964C29.7394 32.0058 30.4335 31.9997 30.6344 31.9443C30.913 31.8675 31.0776 31.7374 31.2151 31.4856C31.32 31.2936 31.32 31.2935 31.3445 30.2757C31.3579 29.7159 31.3707 28.4879 31.3728 27.5469C31.3761 26.0687 31.3847 25.8235 31.4356 25.7453C31.4932 25.6567 31.5108 25.6548 32.2863 25.6548C33.0278 25.6548 33.083 25.66 33.1539 25.7362C33.2266 25.8145 33.2295 25.8719 33.2295 27.2148C33.2295 28.7591 33.2476 28.9143 33.4585 29.1728C33.5202 29.2485 33.6513 29.3536 33.7499 29.4063C33.9289 29.5021 33.9306 29.5022 35.6253 29.5143C36.761 29.5225 37.3881 29.5116 37.5231 29.4814C37.8839 29.4008 38.0786 29.19 38.256 28.6879C39.051 26.4381 39.639 23.8986 39.864 21.7437C40.0792 19.682 40.0374 17.4065 39.7499 15.5376C39.6443 14.8512 39.4646 13.9662 39.3152 13.3969C38.9401 11.9681 38.3185 10.4176 37.9703 10.0428C37.6812 9.73145 37.6791 9.73116 35.7204 9.7446C34.1229 9.75555 33.9955 9.76166 33.8723 9.83319C33.6319 9.97279 33.4729 10.1343 33.3599 10.3539L33.2484 10.5706L33.237 11.8826L33.2256 13.1946L33.0858 13.2393C32.9984 13.2672 32.6739 13.279 32.2219 13.2708C31.578 13.2592 31.4892 13.2493 31.4198 13.1816C31.3436 13.1072 31.3415 13.0645 31.3309 11.3088L31.32 9.51208L31.2067 9.29191C31.1444 9.17083 31.0636 9.06335 31.0271 9.05309C30.9906 9.04279 30.9607 9.01775 30.9607 8.99743C30.9607 8.87391 30.7334 8.86051 28.2949 8.84032L25.8371 8.81996L25.8148 7.51715C25.8022 6.78602 25.775 6.15876 25.7528 6.08767C25.654 5.77227 25.5312 5.61369 25.2888 5.48817C25.1212 5.40137 25.0831 5.39978 22.6858 5.37971L20.253 5.35935L20.1808 5.26323C20.113 5.17305 20.1086 5.08751 20.1097 3.87899C20.1107 2.7946 20.1199 2.578 20.168 2.50944C20.2235 2.43034 20.2822 2.42736 22.2181 2.40526C24.4554 2.37973 24.4022 2.38669 24.6849 2.08277C24.8822 1.8707 24.9594 1.64759 24.9555 1.3012C24.9506 0.866753 24.7171 0.558799 24.2835 0.414553C24.0349 0.331905 23.982 0.331335 17.0133 0.334144C11.1141 0.336587 9.97072 0.346073 9.85017 0.393708ZM16.2386 2.48212C16.183 2.54816 16.176 2.7056 16.176 3.87895C16.176 4.95674 16.1859 5.21592 16.2296 5.28033C16.2801 5.35471 16.336 5.35935 17.178 5.35935C18.02 5.35935 18.0759 5.35471 18.1264 5.28033C18.2098 5.15742 18.2051 2.62718 18.1212 2.49816C18.0632 2.40904 18.0488 2.40766 17.1817 2.40766C16.3766 2.40766 16.2958 2.41405 16.2386 2.48212ZM11.317 7.46239C11.1503 7.56055 11.1469 7.58555 11.1461 8.71578C11.1453 9.89084 11.1115 10.1986 10.957 10.4415C10.8361 10.6314 10.6125 10.7819 10.3761 10.8323C10.2667 10.8556 9.38946 10.8785 8.3568 10.8849C6.78281 10.8947 6.52598 10.9048 6.49509 10.9574C6.43784 11.0549 6.44612 24.9335 6.50349 24.9953C6.53827 25.0327 7.58754 25.0442 10.9937 25.0446C15.6468 25.0451 15.6237 25.0443 15.9302 25.2178C16.0931 25.31 16.302 25.5574 17.0989 26.6018C17.515 27.1471 17.7949 27.5476 17.7792 27.575C17.7636 27.6021 17.7691 27.6105 17.7922 27.5951C17.8348 27.5668 18.0719 27.8603 18.8396 28.8915C19.4596 29.7242 19.4925 29.7622 19.6736 29.8525C19.8183 29.9246 20.0326 29.9279 24.5912 29.9288C28.2488 29.9295 29.368 29.9183 29.4029 29.8808C29.4372 29.8438 29.4482 29.1843 29.4482 27.1619C29.4482 25.079 29.4592 24.4462 29.4983 24.2842C29.5666 24.0007 29.7427 23.7736 29.9863 23.6551L30.1856 23.5581L32.1329 23.5451C34.16 23.5315 34.384 23.5455 34.6713 23.7033C34.7478 23.7453 34.8635 23.8489 34.9285 23.9335C35.134 24.201 35.1575 24.3676 35.1622 25.591C35.1645 26.1971 35.1773 26.867 35.1905 27.0798L35.2147 27.4665L35.7902 27.4778C36.6604 27.4948 36.6491 27.5046 36.9485 26.4649C37.7203 23.7848 38.0698 21.4522 38.0694 18.9848C38.0689 16.7303 37.7553 14.7271 37.0851 12.6973C36.802 11.84 36.7649 11.8125 35.8931 11.8125C35.4286 11.8124 35.2686 11.8259 35.2124 11.8701C35.1429 11.9248 35.1381 12.0017 35.1201 13.3324L35.1012 14.7369L34.9867 14.9122C34.9238 15.0086 34.799 15.143 34.7094 15.2108L34.5465 15.3341L32.424 15.3452C30.0272 15.3579 30.038 15.359 29.7496 15.0636C29.4616 14.7685 29.4685 14.8224 29.4558 12.7912C29.4483 11.5792 29.4311 10.9639 29.4039 10.9286C29.3715 10.8866 28.9053 10.876 27.1011 10.876C25.6479 10.876 24.7719 10.8605 24.6516 10.8327C24.3643 10.7664 24.1376 10.5906 24.0142 10.3385L23.9087 10.1228L23.8981 8.9421C23.8914 8.19885 23.872 7.71925 23.8455 7.64755C23.7544 7.40063 24.1568 7.41524 17.4919 7.41659C13.1499 7.41748 11.3709 7.43067 11.317 7.46239Z" fill="#EFD445"/>
</svg>
