<svg width="31" height="37" viewBox="0 0 31 37" fill="none" xmlns="http://www.w3.org/2000/svg">
<path d="M9.76018 12.6411L9.75652 12.6441L9.75304 12.6475L9.76018 12.6411ZM25.9356 12.338C25.8225 12.2291 25.6971 12.1337 25.5619 12.054C25.3704 11.9413 25.1579 11.8691 24.9374 11.8418C24.717 11.8145 24.4932 11.8328 24.2801 11.8954C24.067 11.958 23.8689 12.0637 23.6983 12.2059C23.5276 12.348 23.3879 12.5237 23.2878 12.7221C22.7281 13.8249 21.956 14.8064 21.0161 15.6102C21.1598 14.8003 21.2323 13.9794 21.2327 13.1569C21.2357 10.6545 20.5756 8.19608 19.3195 6.03183C18.0634 3.86758 16.2563 2.07483 14.082 0.836114C13.8425 0.700341 13.5725 0.627642 13.2971 0.62484C13.0218 0.622038 12.7503 0.689224 12.5081 0.820094C12.2659 0.950964 12.0609 1.14123 11.9123 1.37303C11.7638 1.60483 11.6765 1.87058 11.6588 2.14533C11.5679 3.68611 11.1651 5.19239 10.4748 6.57291C9.78458 7.95343 8.82124 9.17944 7.64318 10.1767L7.26866 10.4813C6.03677 11.3102 4.94637 12.3321 4.0393 13.5076C2.62931 15.2839 1.65257 17.3643 1.18654 19.5838C0.72051 21.8032 0.778005 24.1008 1.35447 26.2942C1.93093 28.4876 3.0105 30.5165 4.50757 32.22C6.00464 33.9236 7.87803 35.2549 9.97918 36.1084C10.2259 36.2092 10.4936 36.2478 10.7587 36.2207C11.0238 36.1936 11.2782 36.1016 11.4994 35.953C11.7206 35.8043 11.9018 35.6035 12.0271 35.3682C12.1523 35.133 12.2177 34.8705 12.2176 34.604C12.2164 34.4316 12.1891 34.2604 12.1366 34.0962C11.7731 32.7296 11.6684 31.3071 11.828 29.902C13.3656 32.8022 15.8338 35.101 18.8358 36.429C19.2022 36.5929 19.6164 36.615 19.9982 36.4909C22.37 35.7253 24.5066 34.3661 26.2051 32.5422C27.9036 30.7183 29.1075 28.4904 29.7025 26.0702C30.2974 23.65 30.2637 21.1179 29.6044 18.7144C28.9451 16.3109 27.6821 14.1159 25.9356 12.338ZM19.5903 33.1885C18.1738 32.4706 16.9243 31.4627 15.9229 30.2301C14.9216 28.9976 14.1909 27.5682 13.7782 26.0347C13.6522 25.5184 13.5548 24.9955 13.4863 24.4684C13.4398 24.1328 13.2897 23.82 13.0568 23.5739C12.8239 23.3278 12.5199 23.1606 12.1874 23.0957C12.0849 23.0755 11.9807 23.0654 11.8763 23.0656C11.5907 23.0655 11.3101 23.1407 11.0628 23.2836C10.8156 23.4266 10.6104 23.6322 10.4679 23.8797C9.1196 26.2053 8.44154 28.8588 8.50886 31.5461C7.323 30.6241 6.33193 29.4759 5.59309 28.168C4.85424 26.8602 4.38232 25.4187 4.20468 23.9271C4.02703 22.4355 4.14719 20.9235 4.5582 19.4787C4.9692 18.0339 5.66288 16.6851 6.59902 15.5103C7.30981 14.5871 8.16729 13.7867 9.13727 13.1411C9.17927 13.114 9.21954 13.0843 9.25787 13.0522C9.25787 13.0522 9.74 12.6533 9.75647 12.6442C12.0716 10.686 13.7182 8.05437 14.4669 5.11604C16.2375 6.75279 17.4181 8.92834 17.8254 11.3049C18.2327 13.6814 17.844 16.1259 16.7195 18.2589C16.571 18.5435 16.51 18.8657 16.5444 19.1849C16.5788 19.5041 16.7069 19.806 16.9126 20.0525C17.1184 20.299 17.3925 20.479 17.7004 20.5699C18.0083 20.6608 18.3363 20.6584 18.6429 20.5631C21.132 19.7828 23.3224 18.2587 24.9191 16.1959C25.8788 17.6134 26.5062 19.2292 26.7546 20.9228C27.003 22.6165 26.866 24.3443 26.3537 25.9777C25.8415 27.611 24.9673 29.1077 23.7963 30.3562C22.6252 31.6048 21.1875 32.5729 19.5903 33.1885L19.5903 33.1885Z" fill="#EFD445"/>
</svg>
