<svg width="31" height="34" viewBox="0 0 31 34" fill="none" xmlns="http://www.w3.org/2000/svg">
<path d="M29.9886 17.8974C30.6396 16.9815 31 15.8593 31 14.6917C31 12.8392 30.0274 11.0858 28.4619 10.108C28.0589 9.85633 27.6 9.72387 27.1328 9.72433H17.8405L18.073 4.65383C18.1273 3.42849 17.7204 2.26504 16.9299 1.37802C16.5419 0.940808 16.0739 0.592949 15.5547 0.355936C15.0355 0.118923 14.4762 -0.00220731 13.9113 3.04484e-05C11.8962 3.04484e-05 10.1138 1.44403 9.579 3.51101L6.25037 16.342H6.23875V34H24.5404C24.8969 34 25.2456 33.9257 25.5672 33.7772C27.4117 32.9397 28.6014 31.0212 28.6014 28.8924C28.6014 28.3725 28.5316 27.8609 28.3921 27.3659C29.0431 26.45 29.4035 25.3278 29.4035 24.1602C29.4035 23.6403 29.3338 23.1288 29.1943 22.6337C29.8453 21.7178 30.2056 20.5956 30.2056 19.428C30.1979 18.9082 30.1281 18.3924 29.9886 17.8974ZM0 17.6622V32.6798C0 33.41 0.554125 34 1.24 34H3.75875V16.342H1.24C0.554125 16.342 0 16.9319 0 17.6622Z" fill="#6FCF97"/>
</svg>
