<svg width="2089" height="556" viewBox="0 0 2089 556" fill="none" xmlns="http://www.w3.org/2000/svg">
<g style="mix-blend-mode:soft-light">
<path d="M403.423 364.825L329.155 211.886L256.67 364.825H403.423ZM491.95 547.636L457.49 475.946H204.979L171.113 547.636H0L218.644 103.155H445.607L676.728 547.636H491.95Z" fill="white"/>
<path d="M695.992 547.636V103.155H1111.89C1171.31 103.155 1213.29 112.714 1237.85 131.831C1262.8 150.55 1275.28 174.646 1275.28 204.119V210.691C1275.28 235.384 1267.36 255.099 1251.51 269.835C1235.67 284.174 1218.24 293.533 1199.23 297.914C1211.11 300.702 1222.01 304.486 1231.91 309.265C1242.21 314.045 1252.9 320.616 1263.99 328.98C1275.48 337.344 1284.39 348.695 1290.73 363.033C1297.46 377.371 1300.83 393.701 1300.83 412.022V419.191C1300.83 504.821 1238.64 547.636 1114.27 547.636H695.992ZM1060.8 204.119H864.728V266.848H1060.8C1090.9 266.848 1105.95 256.493 1105.95 235.782V234.588C1105.95 214.275 1090.9 204.119 1060.8 204.119ZM1071.49 366.618H864.728V443.087H1071.49C1106.35 443.087 1123.77 430.343 1123.77 404.853V403.06C1123.77 378.765 1106.35 366.618 1071.49 366.618Z" fill="white"/>
<path d="M1657.39 556H1634.22C1582.33 556 1536.78 550.822 1497.56 540.467C1458.75 530.112 1428.45 517.367 1406.66 502.232C1384.88 486.699 1367.25 468.378 1353.78 447.269C1340.31 426.161 1331.6 406.645 1327.64 388.722C1323.68 370.8 1321.7 352.08 1321.7 332.565V315.239C1321.7 295.325 1323.48 276.606 1327.05 259.082C1331.01 241.558 1339.52 222.44 1352.59 201.729C1365.66 180.621 1382.89 162.698 1404.28 147.962C1426.07 132.827 1456.57 120.281 1495.78 110.324C1535.39 99.9688 1581.54 94.7911 1634.22 94.7911H1657.39C1694.23 94.7911 1727.89 97.1808 1758.39 101.96C1789.29 106.74 1815.03 112.913 1835.63 120.48C1856.62 128.048 1875.04 137.208 1890.89 147.962C1907.13 158.317 1919.8 168.871 1928.91 179.625C1938.02 190.378 1945.35 201.929 1950.89 214.275C1956.84 226.224 1960.6 236.977 1962.18 246.536C1964.16 256.095 1965.15 265.454 1965.15 274.615V282.381H1789.88C1776.42 236.977 1727.89 214.275 1644.32 214.275C1545.69 214.275 1496.38 248.926 1496.38 318.227V325.396C1496.38 338.539 1498.55 351.085 1502.91 363.033C1507.66 374.981 1515.19 386.731 1525.49 398.281C1536.18 409.831 1551.63 418.992 1571.83 425.762C1592.43 432.533 1616.79 435.918 1644.91 435.918C1669.47 435.918 1691.06 433.728 1709.67 429.347C1728.29 424.567 1742.35 419.39 1751.86 413.814C1761.36 408.238 1769.29 401.268 1775.62 392.904C1781.96 384.54 1785.72 378.566 1786.91 374.981C1788.1 371.397 1789.29 367.414 1790.48 363.033H1965.15V372.592C1965.15 386.133 1963.17 400.073 1959.21 414.411C1955.25 428.351 1946.54 444.282 1933.07 462.205C1919.6 479.729 1902.18 495.262 1880.79 508.804C1859.79 521.947 1829.89 533.099 1791.07 542.259C1752.65 551.42 1708.09 556 1657.39 556Z" fill="white"/>
<path d="M2089 74.6776C2089 115.921 2055.75 149.355 2014.73 149.355C1973.72 149.355 1940.46 115.921 1940.46 74.6776C1940.46 33.4343 1973.72 0 2014.73 0C2055.75 0 2089 33.4343 2089 74.6776Z" fill="white"/>
</g>
</svg>
