<svg width="124" height="33" viewBox="0 0 124 33" fill="none" xmlns="http://www.w3.org/2000/svg">
<path d="M23.9466 21.6533L19.5382 12.5759L15.2355 21.6533H23.9466ZM29.2014 32.5036L27.1559 28.2486H12.1673L10.157 32.5036H0L12.9784 6.12251H26.4506L40.1696 32.5036H29.2014Z" fill="#EFD445"/>
<path d="M41.313 32.5036V6.12251H66.0003C69.527 6.12251 72.0192 6.68984 73.477 7.82451C74.9582 8.93554 75.6988 10.3657 75.6988 12.115V12.505C75.6988 13.9706 75.2286 15.1408 74.2881 16.0154C73.3476 16.8664 72.3131 17.4219 71.1846 17.682C71.8899 17.8474 72.5365 18.072 73.1243 18.3557C73.7356 18.6393 74.3704 19.0294 75.0287 19.5258C75.7106 20.0222 76.2396 20.6959 76.6158 21.5469C77.0155 22.3979 77.2153 23.3671 77.2153 24.4545V24.88C77.2153 29.9624 73.524 32.5036 66.1413 32.5036H41.313ZM62.9673 12.115H51.329V15.8381H62.9673C64.7541 15.8381 65.6476 15.2235 65.6476 13.9943V13.9234C65.6476 12.7178 64.7541 12.115 62.9673 12.115ZM63.6021 21.7597H51.329V26.2984H63.6021C65.6711 26.2984 66.7056 25.5419 66.7056 24.029V23.9226C66.7056 22.4807 65.6711 21.7597 63.6021 21.7597Z" fill="#EFD445"/>
<path d="M98.3802 33H97.0047C93.9247 33 91.2209 32.6927 88.8932 32.0781C86.5891 31.4635 84.7905 30.707 83.4973 29.8087C82.2042 28.8868 81.1579 27.7994 80.3585 26.5466C79.5591 25.2937 79.0419 24.1354 78.8067 23.0716C78.5716 22.0079 78.4541 20.8969 78.4541 19.7385V18.7103C78.4541 17.5283 78.5599 16.4173 78.7715 15.3772C79.0066 14.337 79.5121 13.2024 80.288 11.9732C81.0639 10.7203 82.0866 9.65653 83.3562 8.78189C84.6494 7.88361 86.4598 7.13898 88.7874 6.54801C91.1386 5.9334 93.8777 5.62609 97.0047 5.62609H98.3802C100.567 5.62609 102.565 5.76792 104.376 6.05159C106.21 6.33526 107.738 6.70166 108.96 7.1508C110.207 7.59994 111.3 8.14364 112.24 8.78189C113.204 9.39651 113.957 10.0229 114.497 10.6612C115.038 11.2994 115.473 11.985 115.802 12.7178C116.155 13.4269 116.378 14.0652 116.472 14.6325C116.59 15.1999 116.649 15.7554 116.649 16.2991V16.76H106.245C105.445 14.0652 102.565 12.7178 97.6043 12.7178C91.7499 12.7178 88.8227 14.7744 88.8227 18.8875V19.313C88.8227 20.0931 88.952 20.8378 89.2106 21.5469C89.4928 22.2561 89.9395 22.9534 90.5508 23.639C91.1856 24.3245 92.1026 24.8682 93.3017 25.2701C94.5243 25.6719 95.9702 25.8729 97.6396 25.8729C99.0973 25.8729 100.379 25.7428 101.484 25.4828C102.589 25.1991 103.423 24.8918 103.988 24.5609C104.552 24.2299 105.022 23.8163 105.398 23.3198C105.775 22.8234 105.998 22.4688 106.068 22.2561C106.139 22.0433 106.21 21.807 106.28 21.5469H116.649V22.1143C116.649 22.918 116.531 23.7453 116.296 24.5964C116.061 25.4237 115.544 26.3693 114.744 27.433C113.945 28.4731 112.91 29.3951 111.641 30.1988C110.395 30.9789 108.619 31.6408 106.315 32.1845C104.035 32.7282 101.39 33 98.3802 33Z" fill="#EFD445"/>
<path d="M124 4.4323C124 6.8802 122.026 8.86461 119.592 8.86461C117.157 8.86461 115.183 6.8802 115.183 4.4323C115.183 1.98441 117.157 0 119.592 0C122.026 0 124 1.98441 124 4.4323Z" fill="#EFD445"/>
</svg>
