<svg width="40" height="40" viewBox="0 0 40 40" fill="none" xmlns="http://www.w3.org/2000/svg">
<path d="M26.666 37.9166H13.3327C8.29935 37.9166 5.41602 35.0333 5.41602 29.9999V13.7499C5.41602 8.49992 8.08268 5.83325 13.3327 5.83325C14.016 5.83325 14.5827 6.39992 14.5827 7.08325C14.5825 7.41162 14.647 7.73681 14.7725 8.04022C14.8981 8.34363 15.0822 8.61932 15.3144 8.85151C15.5466 9.0837 15.8223 9.26784 16.1257 9.3934C16.4291 9.51896 16.7543 9.58347 17.0827 9.58325H22.916C24.2993 9.58325 25.416 8.46659 25.416 7.08325C25.416 6.39992 25.9827 5.83325 26.666 5.83325C31.916 5.83325 34.5827 8.49992 34.5827 13.7499V29.9999C34.5827 35.0333 31.6993 37.9166 26.666 37.9166ZM12.2493 8.36659C9.61602 8.58325 7.91602 9.76659 7.91602 13.7499V29.9999C7.91602 33.6999 9.63268 35.4166 13.3327 35.4166H26.666C30.366 35.4166 32.0827 33.6999 32.0827 29.9999V13.7499C32.0827 9.76659 30.3827 8.59992 27.7493 8.36659C27.4648 9.43152 26.837 10.3729 25.9632 11.0448C25.0893 11.7167 24.0183 12.0817 22.916 12.0833H17.0827C15.7493 12.0833 14.4993 11.5666 13.5493 10.6166C12.916 9.98325 12.4827 9.21659 12.2493 8.36659Z" fill="#EFD445"/>
<path d="M22.9173 12.0833H17.084C15.7507 12.0833 14.5007 11.5666 13.5507 10.6166C12.6007 9.66658 12.084 8.41658 12.084 7.08325C12.084 4.33325 14.334 2.08325 17.084 2.08325H22.9173C24.2507 2.08325 25.5007 2.59992 26.4507 3.54992C27.4007 4.49992 27.9173 5.74992 27.9173 7.08325C27.9173 9.83325 25.6673 12.0833 22.9173 12.0833ZM17.084 4.58325C16.5891 4.58209 16.1051 4.728 15.6934 5.00247C15.2816 5.27694 14.9607 5.66757 14.7714 6.12478C14.5821 6.58198 14.5329 7.08513 14.6301 7.57034C14.7273 8.05554 14.9665 8.50092 15.3173 8.84992C15.784 9.31659 16.4173 9.58325 17.084 9.58325H22.9173C23.4122 9.58441 23.8962 9.4385 24.308 9.16403C24.7197 8.88957 25.0406 8.49893 25.2299 8.04173C25.4192 7.58452 25.4684 7.08137 25.3712 6.59617C25.274 6.11096 25.0348 5.66558 24.684 5.31659C24.2173 4.84992 23.584 4.58325 22.9173 4.58325H17.084ZM20.0007 22.9166H13.334C12.6507 22.9166 12.084 22.3499 12.084 21.6666C12.084 20.9833 12.6507 20.4166 13.334 20.4166H20.0007C20.684 20.4166 21.2507 20.9833 21.2507 21.6666C21.2507 22.3499 20.684 22.9166 20.0007 22.9166ZM26.6673 29.5833H13.334C12.6507 29.5833 12.084 29.0166 12.084 28.3333C12.084 27.6499 12.6507 27.0833 13.334 27.0833H26.6673C27.3507 27.0833 27.9173 27.6499 27.9173 28.3333C27.9173 29.0166 27.3507 29.5833 26.6673 29.5833Z" fill="#EFD445"/>
</svg>
