<svg width="27" height="33" viewBox="0 0 27 33" fill="none" xmlns="http://www.w3.org/2000/svg">
<path d="M25.8988 2.93126C25.71 2.77855 25.4894 2.67008 25.2531 2.61384C25.0169 2.5576 24.7711 2.55501 24.5338 2.60626C22.7973 2.97017 21.0048 2.97481 19.2665 2.61989C17.5283 2.26496 15.881 1.558 14.4263 0.542513C14.1542 0.353806 13.8311 0.252686 13.5 0.252686C13.1689 0.252686 12.8458 0.353806 12.5738 0.542513C11.119 1.558 9.47176 2.26496 7.73348 2.61989C5.9952 2.97481 4.20268 2.97017 2.46626 2.60626C2.22891 2.55501 1.98309 2.5576 1.74687 2.61384C1.51066 2.67008 1.29004 2.77855 1.10126 2.93126C0.912726 3.08421 0.760856 3.27745 0.656809 3.49679C0.552763 3.71613 0.499184 3.956 0.500009 4.19876V16.305C0.498565 18.6349 1.05377 20.9313 2.11938 23.0032C3.18499 25.0751 4.73018 26.8624 6.62626 28.2163L12.5575 32.4413C12.8327 32.6372 13.1622 32.7425 13.5 32.7425C13.8379 32.7425 14.1673 32.6372 14.4425 32.4413L20.3738 28.2163C22.2698 26.8624 23.815 25.0751 24.8806 23.0032C25.9463 20.9313 26.5015 18.6349 26.5 16.305V4.19876C26.5008 3.956 26.4473 3.71613 26.3432 3.49679C26.2392 3.27745 26.0873 3.08421 25.8988 2.93126ZM23.25 16.305C23.2513 18.1165 22.8198 19.9021 21.9917 21.5132C21.1635 23.1243 19.9626 24.5143 18.4888 25.5675L13.5 29.1263L8.51126 25.5675C7.03744 24.5143 5.83648 23.1243 5.00833 21.5132C4.18017 19.9021 3.74876 18.1165 3.75001 16.305V6.06751C7.1567 6.35909 10.5686 5.56868 13.5 3.80876C16.4314 5.56868 19.8433 6.35909 23.25 6.06751V16.305ZM16.0025 12.5838L11.6313 16.9713L10.185 15.5088C9.87901 15.2028 9.464 15.0309 9.03126 15.0309C8.59852 15.0309 8.1835 15.2028 7.87751 15.5088C7.57152 15.8148 7.39961 16.2298 7.39961 16.6625C7.39961 17.0953 7.57152 17.5103 7.87751 17.8163L10.4775 20.4163C10.6286 20.5686 10.8083 20.6895 11.0063 20.772C11.2043 20.8545 11.4167 20.8969 11.6313 20.8969C11.8458 20.8969 12.0582 20.8545 12.2562 20.772C12.4542 20.6895 12.6339 20.5686 12.785 20.4163L18.375 14.875C18.681 14.569 18.8529 14.154 18.8529 13.7213C18.8529 13.2885 18.681 12.8735 18.375 12.5675C18.069 12.2615 17.654 12.0896 17.2213 12.0896C16.7885 12.0896 16.3735 12.2615 16.0675 12.5675L16.0025 12.5838Z" fill="#EFD445"/>
</svg>
