<svg width="28" height="34" viewBox="0 0 28 34" fill="none" xmlns="http://www.w3.org/2000/svg">
<path d="M25.025 11.0325L26.6175 9.4575C26.9471 9.12797 27.1322 8.68103 27.1322 8.215C27.1322 7.74897 26.9471 7.30203 26.6175 6.9725C26.288 6.64297 25.8411 6.45784 25.375 6.45784C24.909 6.45784 24.4621 6.64297 24.1325 6.9725L22.5575 8.565C20.105 6.66774 17.092 5.63836 13.9913 5.63836C10.8906 5.63836 7.87758 6.66774 5.42505 8.565L3.83255 6.955C3.50069 6.62547 3.05153 6.44126 2.58386 6.4429C2.11619 6.44454 1.66833 6.6319 1.3388 6.96375C1.00926 7.2956 0.825058 7.74477 0.826699 8.21244C0.82834 8.68011 1.01569 9.12797 1.34755 9.4575L2.95755 11.05C1.03782 13.4957 -0.00382053 16.5159 4.59007e-05 19.625C-0.00566905 21.857 0.522357 24.058 1.54009 26.0445C2.55782 28.0309 4.03575 29.7453 5.85063 31.0445C7.66551 32.3438 9.76473 33.1902 11.9732 33.5134C14.1817 33.8365 16.4354 33.6269 18.5465 32.9021C20.6575 32.1772 22.5646 30.9582 24.1088 29.3465C25.653 27.7349 26.7894 25.7774 27.4234 23.6374C28.0574 21.4973 28.1705 19.2367 27.7533 17.044C27.3361 14.8513 26.4007 12.7902 25.025 11.0325ZM14 30.125C11.9233 30.125 9.89327 29.5092 8.16656 28.3554C6.43984 27.2017 5.09403 25.5618 4.29931 23.6432C3.50459 21.7246 3.29666 19.6134 3.7018 17.5766C4.10695 15.5398 5.10697 13.6688 6.57543 12.2004C8.04388 10.7319 9.9148 9.7319 11.9516 9.32676C13.9884 8.92161 16.0996 9.12955 18.0182 9.92427C19.9368 10.719 21.5767 12.0648 22.7305 13.7915C23.8842 15.5182 24.5 17.5483 24.5 19.625C24.5 22.4098 23.3938 25.0805 21.4247 27.0496C19.4555 29.0188 16.7848 30.125 14 30.125ZM10.5 3.875H17.5C17.9642 3.875 18.4093 3.69063 18.7375 3.36244C19.0657 3.03425 19.25 2.58913 19.25 2.125C19.25 1.66087 19.0657 1.21575 18.7375 0.887563C18.4093 0.559374 17.9642 0.375 17.5 0.375H10.5C10.0359 0.375 9.5908 0.559374 9.26261 0.887563C8.93442 1.21575 8.75005 1.66087 8.75005 2.125C8.75005 2.58913 8.93442 3.03425 9.26261 3.36244C9.5908 3.69063 10.0359 3.875 10.5 3.875ZM15.75 14.375C15.75 13.9109 15.5657 13.4658 15.2375 13.1376C14.9093 12.8094 14.4642 12.625 14 12.625C13.5359 12.625 13.0908 12.8094 12.7626 13.1376C12.4344 13.4658 12.25 13.9109 12.25 14.375V17.6825C11.8538 18.0369 11.5745 18.5033 11.4491 19.0199C11.3237 19.5366 11.3581 20.0791 11.5478 20.5757C11.7375 21.0724 12.0736 21.4997 12.5114 21.8012C12.9493 22.1026 13.4684 22.2641 14 22.2641C14.5317 22.2641 15.0508 22.1026 15.4887 21.8012C15.9265 21.4997 16.2626 21.0724 16.4522 20.5757C16.6419 20.0791 16.6764 19.5366 16.551 19.0199C16.4256 18.5033 16.1463 18.0369 15.75 17.6825V14.375Z" fill="#EFD445"/>
</svg>
