<svg width="22" height="13" viewBox="0 0 22 13" fill="none" xmlns="http://www.w3.org/2000/svg">
<path fill-rule="evenodd" clip-rule="evenodd" d="M21.1135 0.877951C21.263 0.372295 21.1135 0 20.3978 0H18.0343C17.4329 0 17.1555 0.32136 17.0052 0.676059C17.0052 0.676059 15.8032 3.6359 14.1006 5.5585C13.5496 6.11602 13.2993 6.29291 12.9986 6.29291C12.8482 6.29291 12.6222 6.11602 12.6222 5.60944V0.877951C12.6222 0.270424 12.4565 0 11.9559 0H8.23923C7.86378 0 7.63779 0.281537 7.63779 0.549182C7.63779 1.1243 8.48953 1.25766 8.57687 2.87649V6.39385C8.57687 7.1653 8.43911 7.30514 8.13839 7.30514C7.33707 7.30514 5.38778 4.33141 4.23081 0.928886C4.00662 0.266719 3.77973 0 3.17558 0H0.810328C0.135055 0 0 0.32136 0 0.676059C0 1.30766 0.801324 4.44532 3.73201 8.59521C5.6858 11.4291 8.43641 12.9655 10.9421 12.9655C12.4448 12.9655 12.6303 12.6247 12.6303 12.0366V9.89454C12.6303 9.212 12.7726 9.07586 13.2489 9.07586C13.6 9.07586 14.2005 9.25367 15.6033 10.6197C17.206 12.2394 17.4698 12.9655 18.3719 12.9655H20.7354C21.4107 12.9655 21.7492 12.6247 21.5547 11.9505C21.3404 11.28 20.5751 10.3067 19.5604 9.1518C19.0094 8.49427 18.1829 7.78579 17.9317 7.43109C17.5814 6.97637 17.6814 6.77356 17.9317 6.36885C17.9317 6.36885 20.8128 2.26989 21.1126 0.877951H21.1135Z" fill="white"/>
</svg>
