<svg width="40" height="40" viewBox="0 0 40 40" fill="none" xmlns="http://www.w3.org/2000/svg">
<path d="M20.9173 34.315C19.6007 34.315 18.1507 33.8483 16.7007 32.9316L11.834 29.8816C11.5007 29.6816 11.1173 29.565 10.734 29.565H8.33398C4.30065 29.565 2.08398 27.3483 2.08398 23.315V16.6483C2.08398 12.615 4.30065 10.3983 8.33398 10.3983H10.7173C11.1007 10.3983 11.484 10.2816 11.8173 10.0816L16.684 7.03164C19.1173 5.51497 21.484 5.23164 23.3507 6.26497C25.2173 7.2983 26.234 9.4483 26.234 12.3316V27.615C26.234 30.4816 25.2007 32.6483 23.3507 33.6816C22.6173 34.115 21.784 34.315 20.9173 34.315ZM8.33398 12.915C5.70065 12.915 4.58398 14.0316 4.58398 16.665V23.3316C4.58398 25.965 5.70065 27.0816 8.33398 27.0816H10.7173C11.584 27.0816 12.4173 27.315 13.1507 27.7816L18.0173 30.8316C19.6173 31.8316 21.134 32.0983 22.1507 31.5316C23.1673 30.965 23.7507 29.5483 23.7507 27.665V12.3483C23.7507 10.4483 23.1673 9.03164 22.1507 8.48164C21.134 7.91497 19.6173 8.16497 18.0173 9.18164L13.134 12.215C12.4173 12.6816 11.5673 12.915 10.7173 12.915H8.33398ZM30.0007 27.9166C29.7685 27.9166 29.541 27.852 29.3435 27.73C29.146 27.6079 28.9864 27.4333 28.8826 27.2257C28.7788 27.018 28.7349 26.7856 28.7557 26.5544C28.7766 26.3232 28.8614 26.1024 29.0007 25.9166C30.2749 24.2072 30.9632 22.1321 30.9632 20C30.9632 17.8679 30.2749 15.7927 29.0007 14.0833C28.8017 13.8181 28.7163 13.4847 28.7632 13.1565C28.8101 12.8283 28.9854 12.5322 29.2507 12.3333C29.5159 12.1344 29.8492 12.049 30.1774 12.0959C30.5056 12.1428 30.8017 12.3181 31.0007 12.5833C34.2673 16.95 34.2673 23.05 31.0007 27.4166C30.7507 27.75 30.384 27.9166 30.0007 27.9166Z" fill="#EFD445"/>
<path d="M33.0466 32.0833C32.8145 32.0833 32.5869 32.0187 32.3895 31.8966C32.192 31.7746 32.0324 31.5999 31.9286 31.3923C31.8248 31.1847 31.7808 30.9522 31.8017 30.721C31.8225 30.4898 31.9074 30.269 32.0466 30.0833C36.4966 24.15 36.4966 15.85 32.0466 9.91663C31.8477 9.65141 31.7623 9.31804 31.8092 8.98985C31.8561 8.66167 32.0314 8.36554 32.2966 8.16663C32.5619 7.96772 32.8952 7.88231 33.2234 7.92919C33.5516 7.97608 33.8477 8.15141 34.0466 8.41663C39.1633 15.2333 39.1633 24.7666 34.0466 31.5833C33.8133 31.9166 33.43 32.0833 33.0466 32.0833Z" fill="#EFD445"/>
</svg>
