<svg width="33" height="31" viewBox="0 0 33 31" fill="none" xmlns="http://www.w3.org/2000/svg">
<path d="M27.875 7.375H26.25V5.75C26.25 4.45707 25.7364 3.21709 24.8221 2.30285C23.9079 1.38861 22.6679 0.875 21.375 0.875H5.125C3.83207 0.875 2.59209 1.38861 1.67785 2.30285C0.763615 3.21709 0.25 4.45707 0.25 5.75V5.75V25.25C0.25 26.5429 0.763615 27.7829 1.67785 28.6971C2.59209 29.6114 3.83207 30.125 5.125 30.125H27.875C29.1679 30.125 30.4079 29.6114 31.3221 28.6971C32.2364 27.7829 32.75 26.5429 32.75 25.25V12.25C32.75 10.9571 32.2364 9.71709 31.3221 8.80285C30.4079 7.88861 29.1679 7.375 27.875 7.375ZM5.125 4.125H21.375C21.806 4.125 22.2193 4.29621 22.524 4.60095C22.8288 4.9057 23 5.31902 23 5.75V7.375H5.125C4.69402 7.375 4.2807 7.20379 3.97595 6.89905C3.67121 6.5943 3.5 6.18098 3.5 5.75C3.5 5.31902 3.67121 4.9057 3.97595 4.60095C4.2807 4.29621 4.69402 4.125 5.125 4.125V4.125ZM29.5 20.375H27.875C27.444 20.375 27.0307 20.2038 26.726 19.899C26.4212 19.5943 26.25 19.181 26.25 18.75C26.25 18.319 26.4212 17.9057 26.726 17.601C27.0307 17.2962 27.444 17.125 27.875 17.125H29.5V20.375ZM29.5 13.875H27.875C26.5821 13.875 25.3421 14.3886 24.4279 15.3029C23.5136 16.2171 23 17.4571 23 18.75C23 20.0429 23.5136 21.2829 24.4279 22.1971C25.3421 23.1114 26.5821 23.625 27.875 23.625H29.5V25.25C29.5 25.681 29.3288 26.0943 29.024 26.399C28.7193 26.7038 28.306 26.875 27.875 26.875H5.125C4.69402 26.875 4.2807 26.7038 3.97595 26.399C3.67121 26.0943 3.5 25.681 3.5 25.25V10.3487C4.02206 10.5324 4.57158 10.6258 5.125 10.625H27.875C28.306 10.625 28.7193 10.7962 29.024 11.101C29.3288 11.4057 29.5 11.819 29.5 12.25V13.875Z" fill="#EFD445"/>
</svg>
