<svg width="1920" height="960" viewBox="0 0 1920 960" fill="none" xmlns="http://www.w3.org/2000/svg">
<rect width="1920" height="960" fill="#F5F5F5"/>
<rect width="1920" height="960" fill="#32393F"/>
<path fill-rule="evenodd" clip-rule="evenodd" d="M942.66 413.741C919.612 413.741 896.811 420.481 881.197 435.889V368H821.717V560.593H881.197V540.852C896.811 556.259 919.612 563 942.66 563C981.075 563 1023.95 546.63 1023.95 488.37C1023.95 430.111 981.075 413.741 942.66 413.741ZM922.834 514.852C896.315 514.852 881.197 509.556 881.197 488.37C881.197 467.185 896.315 461.889 922.834 461.889C949.352 461.889 964.47 467.185 964.47 488.37C964.47 509.556 949.352 514.852 922.834 514.852Z" fill="#EFD445"/>
<path fill-rule="evenodd" clip-rule="evenodd" d="M715.612 413.741C688.103 413.741 655.884 419.037 626.144 428.426L645.475 469.352C672.737 463.574 694.546 461.889 713.63 461.889C733.457 461.889 752.292 462.611 752.292 479.944C738.661 475.13 722.8 472.481 701.982 472.481C658.61 472.481 614 482.352 614 519.907C614 551.204 643.74 563 677.694 563C703.469 563 729.243 559.389 752.292 543.018V560.593H811.773V489.093C811.277 433.963 776.58 413.741 715.612 413.741ZM752.292 513.407C737.422 519.667 715.612 524.481 695.538 524.481C680.42 524.481 673.48 523.278 673.48 515.333C673.48 506.185 685.377 503.778 712.886 503.778C729.987 503.778 742.874 504.981 752.292 507.389V513.407Z" fill="#EFD445"/>
<path d="M1129.95 563C1066.75 563 1028.83 541.815 1028.83 488.37C1028.83 434.926 1066.75 413.741 1129.95 413.741C1188.69 413.741 1225.61 432.037 1230.57 477.537H1169.85C1165.14 465.259 1151.26 461.889 1129.95 461.889C1103.43 461.889 1088.31 467.185 1088.31 488.37C1088.31 509.556 1103.43 514.852 1129.95 514.852C1151.26 514.852 1165.14 511.481 1169.85 499.204H1230.57C1225.61 544.704 1188.69 563 1129.95 563Z" fill="#EFD445"/>
<path d="M1254.29 431.243C1267.38 431.243 1278 420.625 1278 407.527C1278 394.429 1267.38 383.811 1254.29 383.811C1241.19 383.811 1230.57 394.429 1230.57 407.527C1230.57 420.625 1241.19 431.243 1254.29 431.243Z" fill="#EFD445"/>
</svg>
